<?xml version="1.0" encoding="utf-8"?>
<!-- Generator: Adobe Illustrator 22.0.1, SVG Export Plug-In . SVG Version: 6.00 Build 0)  -->
<svg version="1.0" id="圖層_1" xmlns="http://www.w3.org/2000/svg" xmlns:xlink="http://www.w3.org/1999/xlink" x="0px" y="0px"
	 viewBox="0 0 2560 1080" style="enable-background:new 0 0 2560 1080;" xml:space="preserve">
<style type="text/css">
	.st0{clip-path:url(#SVGID_2_);}
	.st1{fill:#28889F;}
	.st2{clip-path:url(#SVGID_4_);}
	.st3{clip-path:url(#SVGID_6_);}
	.st4{clip-path:url(#SVGID_8_);}
	.st5{clip-path:url(#SVGID_10_);}
	.st6{clip-path:url(#SVGID_12_);}
	.st7{clip-path:url(#SVGID_14_);}
	.st8{clip-path:url(#SVGID_16_);}
</style>
<g>
	<defs>
		<rect id="SVGID_1_" width="2560" height="1080"/>
	</defs>
	<clipPath id="SVGID_2_">
		<use xlink:href="#SVGID_1_"  style="overflow:visible;"/>
	</clipPath>
	<g class="st0">
		<rect y="567" class="st1" width="1920" height="541"/>
		<g>
			<g>
				<defs>
					<rect id="SVGID_3_" y="339" width="1920" height="541"/>
				</defs>
				<clipPath id="SVGID_4_">
					<use xlink:href="#SVGID_3_"  style="overflow:visible;"/>
				</clipPath>
				<g class="st2">
					<path class="st1" d="M598.8,553.4c-42.8,0-42.8-17-85.5-17c-42.8,0-42.8,17-85.5,17c-42.8,0-42.8-17-85.5-17
						c-42.8,0-42.8,17-85.5,17c-42.8,0-42.8-17-85.5-17c-42.8,0-42.8,17-85.5,17c-42.8,0-42.8-17-85.5-17v42.8
						c42.8,0,42.8,17,85.5,17s42.8-17,85.5-17c42.8,0,42.8,17,85.5,17c42.8,0,42.8-17,85.5-17c42.8,0,42.8,17,85.5,17
						c42.8,0,42.8-17,85.5-17c42.8,0,42.8,17,85.5,17"/>
					<path class="st1" d="M1116.8,553.4c-42.8,0-42.8-17-85.5-17c-42.8,0-42.8,17-85.5,17c-42.8,0-42.8-17-85.5-17
						c-42.8,0-42.8,17-85.5,17c-42.8,0-42.8-17-85.5-17c-42.8,0-42.8,17-85.5,17c-42.8,0-42.8-17-85.5-17v42.8
						c42.8,0,42.8,17,85.5,17c42.8,0,42.8-17,85.5-17c42.8,0,42.8,17,85.5,17c42.8,0,42.8-17,85.5-17c42.8,0,42.8,17,85.5,17
						c42.8,0,42.8-17,85.5-17c42.8,0,42.8,17,85.5,17"/>
					<path class="st1" d="M1645.8,553.4c-42.8,0-42.8-17-85.5-17c-42.8,0-42.8,17-85.5,17c-42.8,0-42.8-17-85.5-17s-42.8,17-85.5,17
						c-42.8,0-42.8-17-85.5-17c-42.8,0-42.8,17-85.5,17c-42.8,0-42.8-17-85.5-17v42.8c42.8,0,42.8,17,85.5,17s42.8-17,85.5-17
						c42.8,0,42.8,17,85.5,17c42.8,0,42.8-17,85.5-17c42.8,0,42.8,17,85.5,17c42.8,0,42.8-17,85.5-17c42.8,0,42.8,17,85.5,17"/>
					<path class="st1" d="M2210.8,566.4c-42.8,0-42.8-17-85.5-17c-42.8,0-42.8,17-85.5,17c-42.8,0-42.8-17-85.5-17s-42.8,17-85.5,17
						c-42.8,0-42.8-17-85.5-17c-42.8,0-42.8,17-85.5,17c-42.8,0-42.8-17-85.5-17v42.8c42.8,0,42.8,17,85.5,17s42.8-17,85.5-17
						c42.8,0,42.8,17,85.5,17c42.8,0,42.8-17,85.5-17c42.8,0,42.8,17,85.5,17c42.8,0,42.8-17,85.5-17c42.8,0,42.8,17,85.5,17"/>
				</g>
			</g>
		</g>
		<g>
			<defs>
				<rect id="SVGID_5_" width="2560" height="1080"/>
			</defs>
			<clipPath id="SVGID_6_">
				<use xlink:href="#SVGID_5_"  style="overflow:visible;"/>
			</clipPath>
			<g class="st3">
				<rect x="688" y="567" class="st1" width="1920" height="541"/>
				<g>
					<g>
						<defs>
							<rect id="SVGID_7_" x="688" y="339" width="1920" height="541"/>
						</defs>
						<clipPath id="SVGID_8_">
							<use xlink:href="#SVGID_7_"  style="overflow:visible;"/>
						</clipPath>
						<g class="st4">
							<path class="st1" d="M1286.8,553.4c-42.8,0-42.8-17-85.5-17c-42.8,0-42.8,17-85.5,17c-42.8,0-42.8-17-85.5-17
								s-42.8,17-85.5,17c-42.8,0-42.8-17-85.5-17c-42.8,0-42.8,17-85.5,17c-42.8,0-42.8-17-85.5-17v42.8c42.8,0,42.8,17,85.5,17
								c42.8,0,42.8-17,85.5-17c42.8,0,42.8,17,85.5,17c42.8,0,42.8-17,85.5-17c42.8,0,42.8,17,85.5,17c42.8,0,42.8-17,85.5-17
								c42.8,0,42.8,17,85.5,17"/>
							<path class="st1" d="M1804.8,553.4c-42.8,0-42.8-17-85.5-17c-42.8,0-42.8,17-85.5,17c-42.8,0-42.8-17-85.5-17
								s-42.8,17-85.5,17c-42.8,0-42.8-17-85.5-17c-42.8,0-42.8,17-85.5,17c-42.8,0-42.8-17-85.5-17v42.8c42.8,0,42.8,17,85.5,17
								s42.8-17,85.5-17c42.8,0,42.8,17,85.5,17c42.8,0,42.8-17,85.5-17c42.8,0,42.8,17,85.5,17c42.8,0,42.8-17,85.5-17
								c42.8,0,42.8,17,85.5,17"/>
							<path class="st1" d="M2333.8,553.4c-42.8,0-42.8-17-85.5-17c-42.8,0-42.8,17-85.5,17c-42.8,0-42.8-17-85.5-17
								s-42.8,17-85.5,17c-42.8,0-42.8-17-85.5-17c-42.8,0-42.8,17-85.5,17c-42.8,0-42.8-17-85.5-17v42.8c42.8,0,42.8,17,85.5,17
								s42.8-17,85.5-17c42.8,0,42.8,17,85.5,17c42.8,0,42.8-17,85.5-17c42.8,0,42.8,17,85.5,17c42.8,0,42.8-17,85.5-17
								c42.8,0,42.8,17,85.5,17"/>
							<path class="st1" d="M2898.8,566.4c-42.8,0-42.8-17-85.5-17c-42.8,0-42.8,17-85.5,17c-42.8,0-42.8-17-85.5-17
								s-42.8,17-85.5,17c-42.8,0-42.8-17-85.5-17c-42.8,0-42.8,17-85.5,17c-42.8,0-42.8-17-85.5-17v42.8c42.8,0,42.8,17,85.5,17
								s42.8-17,85.5-17c42.8,0,42.8,17,85.5,17c42.8,0,42.8-17,85.5-17c42.8,0,42.8,17,85.5,17c42.8,0,42.8-17,85.5-17
								c42.8,0,42.8,17,85.5,17"/>
						</g>
					</g>
				</g>
				<g>
					<defs>
						<rect id="SVGID_9_" width="2560" height="1080"/>
					</defs>
					<clipPath id="SVGID_10_">
						<use xlink:href="#SVGID_9_"  style="overflow:visible;"/>
					</clipPath>
					<g class="st5">
						<rect x="1877" y="567" class="st1" width="1920" height="541"/>
						<g>
							<g>
								<defs>
									<rect id="SVGID_11_" x="1877" y="339" width="1920" height="541"/>
								</defs>
								<clipPath id="SVGID_12_">
									<use xlink:href="#SVGID_11_"  style="overflow:visible;"/>
								</clipPath>
								<g class="st6">
									<path class="st1" d="M2475.8,553.4c-42.8,0-42.8-17-85.5-17c-42.8,0-42.8,17-85.5,17c-42.8,0-42.8-17-85.5-17
										s-42.8,17-85.5,17c-42.8,0-42.8-17-85.5-17c-42.8,0-42.8,17-85.5,17c-42.8,0-42.8-17-85.5-17v42.8c42.8,0,42.8,17,85.5,17
										s42.8-17,85.5-17c42.8,0,42.8,17,85.5,17c42.8,0,42.8-17,85.5-17c42.8,0,42.8,17,85.5,17c42.8,0,42.8-17,85.5-17
										c42.8,0,42.8,17,85.5,17"/>
									<path class="st1" d="M2993.8,553.4c-42.8,0-42.8-17-85.5-17c-42.8,0-42.8,17-85.5,17c-42.8,0-42.8-17-85.5-17
										s-42.8,17-85.5,17c-42.8,0-42.8-17-85.5-17c-42.8,0-42.8,17-85.5,17c-42.8,0-42.8-17-85.5-17v42.8c42.8,0,42.8,17,85.5,17
										s42.8-17,85.5-17c42.8,0,42.8,17,85.5,17c42.8,0,42.8-17,85.5-17c42.8,0,42.8,17,85.5,17c42.8,0,42.8-17,85.5-17
										c42.8,0,42.8,17,85.5,17"/>
									<path class="st1" d="M3522.8,553.4c-42.8,0-42.8-17-85.5-17c-42.8,0-42.8,17-85.5,17c-42.8,0-42.8-17-85.5-17
										s-42.8,17-85.5,17c-42.8,0-42.8-17-85.5-17c-42.8,0-42.8,17-85.5,17c-42.8,0-42.8-17-85.5-17v42.8c42.8,0,42.8,17,85.5,17
										s42.8-17,85.5-17c42.8,0,42.8,17,85.5,17c42.8,0,42.8-17,85.5-17c42.8,0,42.8,17,85.5,17c42.8,0,42.8-17,85.5-17
										c42.8,0,42.8,17,85.5,17"/>
									<path class="st1" d="M4087.8,566.4c-42.8,0-42.8-17-85.5-17c-42.8,0-42.8,17-85.5,17c-42.8,0-42.8-17-85.5-17
										s-42.8,17-85.5,17c-42.8,0-42.8-17-85.5-17c-42.8,0-42.8,17-85.5,17c-42.8,0-42.8-17-85.5-17v42.8c42.8,0,42.8,17,85.5,17
										s42.8-17,85.5-17c42.8,0,42.8,17,85.5,17c42.8,0,42.8-17,85.5-17c42.8,0,42.8,17,85.5,17c42.8,0,42.8-17,85.5-17
										c42.8,0,42.8,17,85.5,17"/>
								</g>
							</g>
						</g>
						<g>
							<defs>
								<rect id="SVGID_13_" width="2560" height="1080"/>
							</defs>
							<clipPath id="SVGID_14_">
								<use xlink:href="#SVGID_13_"  style="overflow:visible;"/>
							</clipPath>
							<g class="st7">
								<rect x="2061" y="567" class="st1" width="1920" height="541"/>
								<g>
									<g>
										<defs>
											<rect id="SVGID_15_" x="2061" y="339" width="1920" height="541"/>
										</defs>
										<clipPath id="SVGID_16_">
											<use xlink:href="#SVGID_15_"  style="overflow:visible;"/>
										</clipPath>
										<g class="st8">
											<path class="st1" d="M2659.8,553.4c-42.8,0-42.8-17-85.5-17c-42.8,0-42.8,17-85.5,17c-42.8,0-42.8-17-85.5-17
												s-42.8,17-85.5,17c-42.8,0-42.8-17-85.5-17c-42.8,0-42.8,17-85.5,17c-42.8,0-42.8-17-85.5-17v42.8
												c42.8,0,42.8,17,85.5,17s42.8-17,85.5-17c42.8,0,42.8,17,85.5,17c42.8,0,42.8-17,85.5-17c42.8,0,42.8,17,85.5,17
												c42.8,0,42.8-17,85.5-17c42.8,0,42.8,17,85.5,17"/>
											<path class="st1" d="M3177.8,553.4c-42.8,0-42.8-17-85.5-17c-42.8,0-42.8,17-85.5,17c-42.8,0-42.8-17-85.5-17
												s-42.8,17-85.5,17c-42.8,0-42.8-17-85.5-17c-42.8,0-42.8,17-85.5,17c-42.8,0-42.8-17-85.5-17v42.8
												c42.8,0,42.8,17,85.5,17s42.8-17,85.5-17c42.8,0,42.8,17,85.5,17c42.8,0,42.8-17,85.5-17c42.8,0,42.8,17,85.5,17
												c42.8,0,42.8-17,85.5-17c42.8,0,42.8,17,85.5,17"/>
											<path class="st1" d="M3706.8,553.4c-42.8,0-42.8-17-85.5-17c-42.8,0-42.8,17-85.5,17c-42.8,0-42.8-17-85.5-17
												s-42.8,17-85.5,17c-42.8,0-42.8-17-85.5-17c-42.8,0-42.8,17-85.5,17c-42.8,0-42.8-17-85.5-17v42.8
												c42.8,0,42.8,17,85.5,17s42.8-17,85.5-17c42.8,0,42.8,17,85.5,17c42.8,0,42.8-17,85.5-17c42.8,0,42.8,17,85.5,17
												c42.8,0,42.8-17,85.5-17c42.8,0,42.8,17,85.5,17"/>
											<path class="st1" d="M4271.8,566.4c-42.8,0-42.8-17-85.5-17c-42.8,0-42.8,17-85.5,17c-42.8,0-42.8-17-85.5-17
												s-42.8,17-85.5,17c-42.8,0-42.8-17-85.5-17c-42.8,0-42.8,17-85.5,17c-42.8,0-42.8-17-85.5-17v42.8
												c42.8,0,42.8,17,85.5,17s42.8-17,85.5-17c42.8,0,42.8,17,85.5,17c42.8,0,42.8-17,85.5-17c42.8,0,42.8,17,85.5,17
												c42.8,0,42.8-17,85.5-17c42.8,0,42.8,17,85.5,17"/>
										</g>
									</g>
								</g>
							</g>
						</g>
					</g>
				</g>
			</g>
		</g>
	</g>
</g>
</svg>
