<?xml version="1.0" encoding="utf-8"?>
<!-- Generator: Adobe Illustrator 15.1.0, SVG Export Plug-In . SVG Version: 6.00 Build 0)  -->
<!DOCTYPE svg PUBLIC "-//W3C//DTD SVG 1.1//EN" "http://www.w3.org/Graphics/SVG/1.1/DTD/svg11.dtd">
<svg version="1.1" id="圖層_1" xmlns="http://www.w3.org/2000/svg" xmlns:xlink="http://www.w3.org/1999/xlink" x="0px" y="0px"
	 width="1168.289px" height="1190.549px" viewBox="-163.2 0 1168.289 1190.549" enable-background="new -163.2 0 1168.289 1190.549"
	 xml:space="preserve">
<g>
	<path fill="#123A95" d="M1005.089,157.167c0-29.208-19.471-48.679-48.678-48.679H-114.522c-29.208,0-48.678,19.471-48.678,48.679
		v97.357c0,29.207,19.47,48.678,48.678,48.678H956.409c29.207,0,48.679-19.471,48.679-48.678L1005.089,157.167L1005.089,157.167z"/>
	<path fill="#123A95" d="M1005.089,546.595c0-29.207-19.471-48.678-48.678-48.678H-114.522
		c-29.208-0.001-48.678,19.471-48.678,48.678v97.359c0,29.207,19.47,48.678,48.678,48.678H956.409
		c29.207,0,48.679-19.471,48.679-48.678L1005.089,546.595L1005.089,546.595z"/>
	<path fill="#123A95" d="M1005.089,936.025c0-29.207-19.471-48.678-48.678-48.678H-114.522c-29.208,0-48.678,19.472-48.678,48.678
		v97.358c0,29.207,19.47,48.678,48.678,48.678H956.409c29.207,0,48.679-19.471,48.679-48.678L1005.089,936.025L1005.089,936.025z"/>
</g>
</svg>
